<svg xmlns="http://www.w3.org/2000/svg" xmlns:xlink="http://www.w3.org/1999/xlink" width="500" zoomAndPan="magnify" viewBox="0 0 375 374.999991" height="500" preserveAspectRatio="xMidYMid meet" version="1.0"><defs><g><g id="id1"/><g id="id2"/></g><clipPath id="id3"><path d="M 110.019531 61.089844 L 185.480469 61.089844 L 185.480469 204.339844 L 110.019531 204.339844 Z M 110.019531 61.089844 " clip-rule="nonzero"/></clipPath><clipPath id="id4"><path d="M 190.714844 61.089844 L 266.25 61.089844 L 266.25 204.339844 L 190.714844 204.339844 Z M 190.714844 61.089844 " clip-rule="nonzero"/></clipPath></defs><rect x="-37.5" width="450" fill="rgb(100%, 100%, 100%)" y="-37.499999" height="449.999989" fill-opacity="1"/><rect x="-37.5" width="450" fill="rgb(100%, 100%, 100%)" y="-37.499999" height="449.999989" fill-opacity="1"/><rect x="-37.5" width="450" fill="rgb(100%, 100%, 100%)" y="-37.499999" height="449.999989" fill-opacity="1"/><rect x="-37.5" width="450" fill="rgb(100%, 100%, 100%)" y="-37.499999" height="449.999989" fill-opacity="1"/><g clip-path="url(#id3)"><path fill="rgb(0%, 7.449341%, 42.349243%)" d="M 180.960938 191.679688 C 180.960938 193.539062 180.039062 195.246094 178.492188 196.246094 C 174.796875 198.636719 170.507812 199.898438 166.089844 199.898438 C 159.457031 199.898438 153.355469 197.113281 149.082031 192.355469 C 149.039062 192.238281 148.992188 192.125 148.929688 192.019531 C 142.640625 180.871094 143.1875 165.96875 150.136719 155.226562 C 152.0625 156.191406 154.140625 156.777344 156.214844 156.914062 C 156.265625 156.917969 156.3125 156.921875 156.363281 156.921875 C 157.519531 156.921875 158.496094 156.019531 158.574219 154.847656 C 158.65625 153.621094 157.730469 152.5625 156.507812 152.484375 C 151.667969 152.160156 147.175781 148.539062 145.824219 143.867188 C 145.480469 142.691406 144.253906 142.011719 143.078125 142.351562 C 141.902344 142.695312 141.222656 143.925781 141.566406 145.105469 C 142.394531 147.976562 144.125 150.660156 146.460938 152.738281 C 142.714844 158.484375 140.53125 165.269531 140.144531 172.460938 C 139.914062 176.726562 140.328125 180.917969 141.347656 184.902344 C 135.976562 182.707031 131.535156 178.589844 128.890625 173.464844 C 128.886719 173.453125 128.882812 173.441406 128.878906 173.433594 C 125.003906 162.847656 126.90625 150.210938 133.730469 141.246094 C 134.476562 140.269531 134.289062 138.878906 133.316406 138.132812 C 132.339844 137.390625 130.949219 137.578125 130.207031 138.550781 C 126.398438 143.554688 123.871094 149.609375 122.898438 156.066406 C 122.535156 158.496094 122.394531 160.9375 122.476562 163.351562 C 117.394531 158.367188 114.453125 151.496094 114.453125 144.261719 C 114.453125 141.644531 114.84375 139.035156 115.59375 136.539062 C 120.179688 125.898438 131.691406 118.417969 143.257812 118.527344 C 143.066406 120.199219 143.046875 121.894531 143.203125 123.582031 C 143.308594 124.734375 144.273438 125.597656 145.40625 125.597656 C 145.476562 125.597656 145.542969 125.59375 145.613281 125.589844 C 146.832031 125.476562 147.730469 124.390625 147.617188 123.171875 C 147.203125 118.710938 148.300781 114.175781 150.707031 110.402344 C 151.367188 109.367188 151.066406 107.996094 150.035156 107.335938 C 149.003906 106.671875 147.632812 106.976562 146.972656 108.007812 C 145.761719 109.90625 144.828125 111.964844 144.179688 114.105469 C 144.132812 114.101562 144.089844 114.09375 144.046875 114.09375 C 137.390625 113.871094 130.476562 115.835938 124.566406 119.628906 C 121.476562 121.613281 118.726562 124.0625 116.433594 126.824219 C 115.738281 124.46875 115.382812 122.027344 115.382812 119.53125 C 115.382812 113.527344 117.441406 107.863281 121.105469 103.367188 C 121.3125 103.253906 121.503906 103.109375 121.675781 102.925781 C 128.625 95.4375 139.585938 91.890625 149.59375 93.886719 C 150.796875 94.125 151.960938 93.34375 152.203125 92.140625 C 152.441406 90.9375 151.660156 89.769531 150.460938 89.527344 C 143.300781 88.101562 135.714844 89.144531 129.085938 92.21875 C 131.863281 82.253906 140.390625 74.863281 150.703125 73.578125 C 158.429688 72.828125 166.503906 75.714844 171.839844 81.398438 C 172.277344 81.863281 172.867188 82.097656 173.457031 82.097656 C 174 82.097656 174.546875 81.898438 174.972656 81.492188 C 175.867188 80.652344 175.910156 79.246094 175.070312 78.355469 C 171.351562 74.394531 166.503906 71.589844 161.28125 70.148438 C 165.394531 67.148438 170.324219 65.53125 175.515625 65.53125 L 175.589844 65.53125 C 178.550781 65.539062 180.960938 67.984375 180.960938 70.980469 Z M 175.601562 61.089844 L 175.515625 61.089844 C 168.085938 61.089844 161.109375 63.886719 155.753906 68.992188 C 155.136719 68.953125 154.523438 68.933594 153.917969 68.933594 C 152.621094 68.933594 151.335938 69.019531 150.078125 69.179688 C 148.351562 69.355469 146.644531 69.683594 144.972656 70.179688 C 144.734375 70.246094 144.519531 70.355469 144.324219 70.492188 C 133.777344 74.023438 125.738281 83.230469 124.03125 94.707031 C 115.820312 100.324219 110.949219 109.527344 110.949219 119.53125 C 110.949219 123.40625 111.675781 127.171875 113.105469 130.730469 C 112.441406 132.105469 111.886719 133.527344 111.433594 134.988281 C 111.421875 135.007812 111.414062 135.027344 111.40625 135.046875 C 111.335938 135.207031 111.292969 135.375 111.265625 135.539062 C 110.445312 138.363281 110.019531 141.308594 110.019531 144.261719 C 110.019531 154.136719 114.710938 163.429688 122.613281 169.292969 C 123.796875 174.113281 126.222656 178.550781 129.65625 182.175781 C 133.046875 185.753906 137.28125 188.390625 141.953125 189.839844 C 144.171875 193.996094 147.421875 197.515625 151.40625 200.0625 C 155.789062 202.863281 160.867188 204.34375 166.089844 204.34375 C 171.363281 204.34375 176.484375 202.832031 180.898438 199.976562 C 183.714844 198.15625 185.394531 195.054688 185.394531 191.679688 L 185.394531 70.980469 C 185.394531 65.542969 181.003906 61.105469 175.601562 61.089844 " fill-opacity="1" fill-rule="nonzero"/></g><g clip-path="url(#id4)"><path fill="rgb(85.879517%, 22.349548%, 31.759644%)" d="M 253.796875 163.351562 C 253.878906 160.9375 253.742188 158.496094 253.375 156.066406 C 252.402344 149.609375 249.875 143.554688 246.066406 138.550781 C 245.324219 137.578125 243.933594 137.390625 242.960938 138.132812 C 241.988281 138.878906 241.800781 140.269531 242.542969 141.246094 C 249.367188 150.210938 251.273438 162.847656 247.394531 173.433594 C 247.390625 173.441406 247.386719 173.453125 247.382812 173.464844 C 244.738281 178.589844 240.300781 182.707031 234.925781 184.902344 C 235.945312 180.917969 236.359375 176.726562 236.128906 172.460938 C 235.742188 165.269531 233.5625 158.484375 229.8125 152.734375 C 232.152344 150.660156 233.878906 147.976562 234.710938 145.105469 C 235.050781 143.925781 234.375 142.695312 233.199219 142.351562 C 232.023438 142.011719 230.792969 142.691406 230.453125 143.867188 C 229.101562 148.539062 224.605469 152.160156 219.765625 152.484375 C 218.542969 152.5625 217.621094 153.621094 217.699219 154.847656 C 217.777344 156.019531 218.753906 156.921875 219.910156 156.921875 C 219.960938 156.921875 220.007812 156.917969 220.058594 156.914062 C 222.136719 156.777344 224.214844 156.191406 226.136719 155.226562 C 233.085938 165.96875 233.632812 180.871094 227.34375 192.019531 C 227.28125 192.125 227.234375 192.238281 227.191406 192.355469 C 222.921875 197.113281 216.816406 199.898438 210.1875 199.898438 C 205.765625 199.898438 201.476562 198.636719 197.78125 196.246094 C 196.234375 195.246094 195.3125 193.539062 195.3125 191.679688 L 195.3125 70.980469 C 195.3125 67.984375 197.722656 65.539062 200.683594 65.53125 L 200.757812 65.53125 C 205.949219 65.53125 210.882812 67.148438 214.992188 70.148438 C 209.769531 71.589844 204.921875 74.394531 201.203125 78.355469 C 200.367188 79.246094 200.40625 80.652344 201.300781 81.492188 C 201.726562 81.898438 202.273438 82.097656 202.820312 82.097656 C 203.410156 82.097656 203.996094 81.863281 204.433594 81.398438 C 209.773438 75.714844 217.84375 72.828125 225.570312 73.578125 C 235.886719 74.863281 244.410156 82.253906 247.1875 92.21875 C 240.558594 89.144531 232.972656 88.101562 225.8125 89.527344 C 224.613281 89.769531 223.832031 90.9375 224.074219 92.140625 C 224.3125 93.34375 225.480469 94.125 226.679688 93.886719 C 236.6875 91.886719 247.648438 95.4375 254.601562 102.925781 C 254.769531 103.109375 254.964844 103.253906 255.171875 103.367188 C 258.832031 107.863281 260.890625 113.527344 260.890625 119.53125 C 260.890625 122.027344 260.539062 124.46875 259.839844 126.824219 C 257.546875 124.0625 254.796875 121.613281 251.707031 119.628906 C 245.800781 115.835938 238.882812 113.871094 232.226562 114.09375 C 232.183594 114.09375 232.140625 114.101562 232.097656 114.105469 C 231.445312 111.964844 230.511719 109.90625 229.300781 108.007812 C 228.640625 106.976562 227.273438 106.671875 226.238281 107.335938 C 225.207031 107.996094 224.90625 109.367188 225.566406 110.402344 C 227.972656 114.175781 229.070312 118.710938 228.65625 123.171875 C 228.542969 124.390625 229.441406 125.476562 230.660156 125.589844 C 230.730469 125.59375 230.796875 125.597656 230.867188 125.597656 C 232 125.597656 232.964844 124.734375 233.070312 123.582031 C 233.230469 121.894531 233.207031 120.199219 233.015625 118.527344 C 244.582031 118.421875 256.097656 125.898438 260.679688 136.539062 C 261.429688 139.035156 261.820312 141.644531 261.820312 144.261719 C 261.820312 151.496094 258.878906 158.367188 253.796875 163.351562 Z M 265.007812 135.539062 C 264.980469 135.375 264.9375 135.207031 264.867188 135.046875 C 264.859375 135.027344 264.851562 135.007812 264.84375 134.988281 C 264.390625 133.527344 263.832031 132.105469 263.171875 130.730469 C 264.601562 127.171875 265.324219 123.40625 265.324219 119.53125 C 265.324219 109.527344 260.453125 100.324219 252.242188 94.707031 C 250.535156 83.230469 242.5 74.023438 231.949219 70.492188 C 231.757812 70.355469 231.539062 70.246094 231.300781 70.179688 C 229.632812 69.683594 227.921875 69.355469 226.195312 69.179688 C 224.9375 69.019531 223.65625 68.933594 222.355469 68.933594 C 221.75 68.933594 221.136719 68.953125 220.523438 68.992188 C 215.164062 63.886719 208.1875 61.089844 200.757812 61.089844 L 200.671875 61.089844 C 195.273438 61.105469 190.878906 65.542969 190.878906 70.980469 L 190.878906 191.679688 C 190.878906 195.054688 192.558594 198.15625 195.378906 199.976562 C 199.792969 202.832031 204.910156 204.34375 210.1875 204.34375 C 215.40625 204.34375 220.484375 202.863281 224.867188 200.0625 C 228.851562 197.515625 232.101562 193.996094 234.320312 189.839844 C 238.992188 188.390625 243.226562 185.753906 246.621094 182.175781 C 250.054688 178.550781 252.476562 174.113281 253.660156 169.292969 C 261.5625 163.429688 266.253906 154.136719 266.253906 144.261719 C 266.253906 141.308594 265.832031 138.363281 265.007812 135.539062 " fill-opacity="1" fill-rule="nonzero"/></g><g fill="rgb(0%, 0%, 0%)" fill-opacity="1"><g transform="translate(139.100936, 261.691536)"><g><path d="M 4.765625 0.171875 C 4.054688 0.171875 3.425781 0.0390625 2.875 -0.21875 C 2.320312 -0.476562 1.890625 -0.84375 1.578125 -1.3125 C 1.265625 -1.78125 1.109375 -2.316406 1.109375 -2.921875 L 1.109375 -8.140625 C 1.109375 -8.316406 1.164062 -8.457031 1.28125 -8.5625 C 1.394531 -8.664062 1.535156 -8.71875 1.703125 -8.71875 C 1.867188 -8.71875 2.003906 -8.664062 2.109375 -8.5625 C 2.222656 -8.457031 2.28125 -8.316406 2.28125 -8.140625 L 2.28125 -2.921875 C 2.28125 -2.523438 2.382812 -2.171875 2.59375 -1.859375 C 2.8125 -1.546875 3.109375 -1.300781 3.484375 -1.125 C 3.859375 -0.957031 4.285156 -0.875 4.765625 -0.875 C 5.234375 -0.875 5.648438 -0.957031 6.015625 -1.125 C 6.378906 -1.300781 6.660156 -1.546875 6.859375 -1.859375 C 7.066406 -2.171875 7.171875 -2.523438 7.171875 -2.921875 L 7.171875 -8.140625 C 7.171875 -8.316406 7.222656 -8.457031 7.328125 -8.5625 C 7.441406 -8.664062 7.582031 -8.71875 7.75 -8.71875 C 7.914062 -8.71875 8.050781 -8.664062 8.15625 -8.5625 C 8.269531 -8.457031 8.328125 -8.316406 8.328125 -8.140625 L 8.328125 -2.921875 C 8.328125 -2.328125 8.175781 -1.789062 7.875 -1.3125 C 7.570312 -0.84375 7.148438 -0.476562 6.609375 -0.21875 C 6.066406 0.0390625 5.453125 0.171875 4.765625 0.171875 Z M 4.765625 0.171875 "/></g></g></g><g fill="rgb(0%, 0%, 0%)" fill-opacity="1"><g transform="translate(152.450113, 261.691536)"><g><path d="M 1.703125 0 C 1.535156 0 1.394531 -0.0507812 1.28125 -0.15625 C 1.164062 -0.269531 1.109375 -0.410156 1.109375 -0.578125 L 1.109375 -8.140625 C 1.109375 -8.316406 1.164062 -8.457031 1.28125 -8.5625 C 1.394531 -8.664062 1.535156 -8.71875 1.703125 -8.71875 C 1.867188 -8.71875 2.003906 -8.664062 2.109375 -8.5625 C 2.222656 -8.457031 2.28125 -8.316406 2.28125 -8.140625 L 2.28125 -0.578125 C 2.28125 -0.410156 2.222656 -0.269531 2.109375 -0.15625 C 2.003906 -0.0507812 1.867188 0 1.703125 0 Z M 1.703125 0 "/></g></g></g><g fill="rgb(0%, 0%, 0%)" fill-opacity="1"><g transform="translate(159.763791, 261.691536)"><g><path d="M 1.6875 0 C 1.519531 0 1.378906 -0.0507812 1.265625 -0.15625 C 1.160156 -0.269531 1.109375 -0.410156 1.109375 -0.578125 L 1.109375 -8.140625 C 1.109375 -8.316406 1.160156 -8.457031 1.265625 -8.5625 C 1.378906 -8.664062 1.519531 -8.71875 1.6875 -8.71875 C 1.769531 -8.71875 1.851562 -8.695312 1.9375 -8.65625 C 2.019531 -8.625 2.085938 -8.578125 2.140625 -8.515625 L 7 -2.03125 L 7 -8.140625 C 7 -8.316406 7.054688 -8.457031 7.171875 -8.5625 C 7.285156 -8.664062 7.421875 -8.71875 7.578125 -8.71875 C 7.742188 -8.71875 7.878906 -8.664062 7.984375 -8.5625 C 8.097656 -8.457031 8.15625 -8.316406 8.15625 -8.140625 L 8.15625 -0.578125 C 8.15625 -0.410156 8.097656 -0.269531 7.984375 -0.15625 C 7.878906 -0.0507812 7.742188 0 7.578125 0 C 7.503906 0 7.421875 -0.015625 7.328125 -0.046875 C 7.242188 -0.078125 7.179688 -0.128906 7.140625 -0.203125 L 2.265625 -6.6875 L 2.265625 -0.578125 C 2.265625 -0.410156 2.207031 -0.269531 2.09375 -0.15625 C 1.988281 -0.0507812 1.851562 0 1.6875 0 Z M 1.6875 0 "/></g></g></g><g fill="rgb(0%, 0%, 0%)" fill-opacity="1"><g transform="translate(172.945622, 261.691536)"><g/></g></g><g fill="rgb(0%, 0%, 0%)" fill-opacity="1"><g transform="translate(180.136574, 261.691536)"><g><path d="M 3.890625 0.109375 C 3.160156 0.109375 2.5 -0.0507812 1.90625 -0.375 C 1.320312 -0.707031 0.914062 -1.140625 0.6875 -1.671875 C 0.65625 -1.753906 0.640625 -1.828125 0.640625 -1.890625 C 0.640625 -2.003906 0.675781 -2.101562 0.75 -2.1875 C 0.832031 -2.269531 0.945312 -2.328125 1.09375 -2.359375 C 1.113281 -2.367188 1.148438 -2.375 1.203125 -2.375 C 1.328125 -2.375 1.441406 -2.335938 1.546875 -2.265625 C 1.648438 -2.191406 1.726562 -2.097656 1.78125 -1.984375 C 1.914062 -1.691406 2.179688 -1.441406 2.578125 -1.234375 C 2.972656 -1.035156 3.410156 -0.9375 3.890625 -0.9375 C 4.441406 -0.9375 4.910156 -1.0625 5.296875 -1.3125 C 5.691406 -1.570312 5.890625 -1.925781 5.890625 -2.375 C 5.890625 -2.800781 5.722656 -3.164062 5.390625 -3.46875 C 5.066406 -3.769531 4.570312 -3.953125 3.90625 -4.015625 C 2.976562 -4.109375 2.25 -4.378906 1.71875 -4.828125 C 1.1875 -5.273438 0.921875 -5.84375 0.921875 -6.53125 C 0.921875 -7 1.054688 -7.40625 1.328125 -7.75 C 1.609375 -8.101562 1.984375 -8.367188 2.453125 -8.546875 C 2.921875 -8.734375 3.453125 -8.828125 4.046875 -8.828125 C 4.679688 -8.828125 5.21875 -8.695312 5.65625 -8.4375 C 6.101562 -8.175781 6.476562 -7.800781 6.78125 -7.3125 C 6.875 -7.175781 6.921875 -7.046875 6.921875 -6.921875 C 6.921875 -6.753906 6.84375 -6.617188 6.6875 -6.515625 C 6.601562 -6.460938 6.507812 -6.4375 6.40625 -6.4375 C 6.289062 -6.4375 6.179688 -6.460938 6.078125 -6.515625 C 5.984375 -6.578125 5.910156 -6.65625 5.859375 -6.75 C 5.660156 -7.082031 5.410156 -7.335938 5.109375 -7.515625 C 4.804688 -7.691406 4.425781 -7.78125 3.96875 -7.78125 C 3.394531 -7.78125 2.929688 -7.664062 2.578125 -7.4375 C 2.234375 -7.21875 2.0625 -6.898438 2.0625 -6.484375 C 2.0625 -6.097656 2.21875 -5.773438 2.53125 -5.515625 C 2.84375 -5.253906 3.40625 -5.082031 4.21875 -5 C 5.101562 -4.914062 5.789062 -4.644531 6.28125 -4.1875 C 6.78125 -3.738281 7.03125 -3.144531 7.03125 -2.40625 C 7.03125 -1.875 6.882812 -1.414062 6.59375 -1.03125 C 6.300781 -0.644531 5.914062 -0.359375 5.4375 -0.171875 C 4.957031 0.015625 4.441406 0.109375 3.890625 0.109375 Z M 3.890625 0.109375 "/></g></g></g><g fill="rgb(0%, 0%, 0%)" fill-opacity="1"><g transform="translate(191.734233, 261.691536)"><g><path d="M 4.765625 0.171875 C 4.054688 0.171875 3.425781 0.0390625 2.875 -0.21875 C 2.320312 -0.476562 1.890625 -0.84375 1.578125 -1.3125 C 1.265625 -1.78125 1.109375 -2.316406 1.109375 -2.921875 L 1.109375 -8.140625 C 1.109375 -8.316406 1.164062 -8.457031 1.28125 -8.5625 C 1.394531 -8.664062 1.535156 -8.71875 1.703125 -8.71875 C 1.867188 -8.71875 2.003906 -8.664062 2.109375 -8.5625 C 2.222656 -8.457031 2.28125 -8.316406 2.28125 -8.140625 L 2.28125 -2.921875 C 2.28125 -2.523438 2.382812 -2.171875 2.59375 -1.859375 C 2.8125 -1.546875 3.109375 -1.300781 3.484375 -1.125 C 3.859375 -0.957031 4.285156 -0.875 4.765625 -0.875 C 5.234375 -0.875 5.648438 -0.957031 6.015625 -1.125 C 6.378906 -1.300781 6.660156 -1.546875 6.859375 -1.859375 C 7.066406 -2.171875 7.171875 -2.523438 7.171875 -2.921875 L 7.171875 -8.140625 C 7.171875 -8.316406 7.222656 -8.457031 7.328125 -8.5625 C 7.441406 -8.664062 7.582031 -8.71875 7.75 -8.71875 C 7.914062 -8.71875 8.050781 -8.664062 8.15625 -8.5625 C 8.269531 -8.457031 8.328125 -8.316406 8.328125 -8.140625 L 8.328125 -2.921875 C 8.328125 -2.328125 8.175781 -1.789062 7.875 -1.3125 C 7.570312 -0.84375 7.148438 -0.476562 6.609375 -0.21875 C 6.066406 0.0390625 5.453125 0.171875 4.765625 0.171875 Z M 4.765625 0.171875 "/></g></g></g><g fill="rgb(0%, 0%, 0%)" fill-opacity="1"><g transform="translate(205.08341, 261.691536)"><g><path d="M 3.890625 0.109375 C 3.160156 0.109375 2.5 -0.0507812 1.90625 -0.375 C 1.320312 -0.707031 0.914062 -1.140625 0.6875 -1.671875 C 0.65625 -1.753906 0.640625 -1.828125 0.640625 -1.890625 C 0.640625 -2.003906 0.675781 -2.101562 0.75 -2.1875 C 0.832031 -2.269531 0.945312 -2.328125 1.09375 -2.359375 C 1.113281 -2.367188 1.148438 -2.375 1.203125 -2.375 C 1.328125 -2.375 1.441406 -2.335938 1.546875 -2.265625 C 1.648438 -2.191406 1.726562 -2.097656 1.78125 -1.984375 C 1.914062 -1.691406 2.179688 -1.441406 2.578125 -1.234375 C 2.972656 -1.035156 3.410156 -0.9375 3.890625 -0.9375 C 4.441406 -0.9375 4.910156 -1.0625 5.296875 -1.3125 C 5.691406 -1.570312 5.890625 -1.925781 5.890625 -2.375 C 5.890625 -2.800781 5.722656 -3.164062 5.390625 -3.46875 C 5.066406 -3.769531 4.570312 -3.953125 3.90625 -4.015625 C 2.976562 -4.109375 2.25 -4.378906 1.71875 -4.828125 C 1.1875 -5.273438 0.921875 -5.84375 0.921875 -6.53125 C 0.921875 -7 1.054688 -7.40625 1.328125 -7.75 C 1.609375 -8.101562 1.984375 -8.367188 2.453125 -8.546875 C 2.921875 -8.734375 3.453125 -8.828125 4.046875 -8.828125 C 4.679688 -8.828125 5.21875 -8.695312 5.65625 -8.4375 C 6.101562 -8.175781 6.476562 -7.800781 6.78125 -7.3125 C 6.875 -7.175781 6.921875 -7.046875 6.921875 -6.921875 C 6.921875 -6.753906 6.84375 -6.617188 6.6875 -6.515625 C 6.601562 -6.460938 6.507812 -6.4375 6.40625 -6.4375 C 6.289062 -6.4375 6.179688 -6.460938 6.078125 -6.515625 C 5.984375 -6.578125 5.910156 -6.65625 5.859375 -6.75 C 5.660156 -7.082031 5.410156 -7.335938 5.109375 -7.515625 C 4.804688 -7.691406 4.425781 -7.78125 3.96875 -7.78125 C 3.394531 -7.78125 2.929688 -7.664062 2.578125 -7.4375 C 2.234375 -7.21875 2.0625 -6.898438 2.0625 -6.484375 C 2.0625 -6.097656 2.21875 -5.773438 2.53125 -5.515625 C 2.84375 -5.253906 3.40625 -5.082031 4.21875 -5 C 5.101562 -4.914062 5.789062 -4.644531 6.28125 -4.1875 C 6.78125 -3.738281 7.03125 -3.144531 7.03125 -2.40625 C 7.03125 -1.875 6.882812 -1.414062 6.59375 -1.03125 C 6.300781 -0.644531 5.914062 -0.359375 5.4375 -0.171875 C 4.957031 0.015625 4.441406 0.109375 3.890625 0.109375 Z M 3.890625 0.109375 "/></g></g></g><g fill="rgb(0%, 0%, 0%)" fill-opacity="1"><g transform="translate(216.681069, 261.691536)"><g><path d="M 1.703125 0 C 1.546875 0 1.40625 -0.0507812 1.28125 -0.15625 C 1.164062 -0.269531 1.109375 -0.410156 1.109375 -0.578125 L 1.109375 -8.140625 C 1.109375 -8.304688 1.164062 -8.441406 1.28125 -8.546875 C 1.40625 -8.660156 1.546875 -8.71875 1.703125 -8.71875 C 1.859375 -8.71875 1.992188 -8.660156 2.109375 -8.546875 C 2.222656 -8.441406 2.28125 -8.304688 2.28125 -8.140625 L 2.28125 -4.796875 L 5.984375 -8.484375 C 6.066406 -8.578125 6.144531 -8.640625 6.21875 -8.671875 C 6.289062 -8.703125 6.367188 -8.71875 6.453125 -8.71875 C 6.609375 -8.71875 6.726562 -8.671875 6.8125 -8.578125 C 6.90625 -8.492188 6.953125 -8.382812 6.953125 -8.25 C 6.953125 -8.050781 6.878906 -7.878906 6.734375 -7.734375 L 3.890625 -4.875 L 6.796875 -0.921875 C 6.867188 -0.816406 6.90625 -0.695312 6.90625 -0.5625 C 6.90625 -0.414062 6.851562 -0.285156 6.75 -0.171875 C 6.65625 -0.0546875 6.535156 0 6.390625 0 C 6.179688 0 6.019531 -0.0820312 5.90625 -0.25 L 3.078125 -4.078125 L 2.28125 -3.265625 L 2.28125 -0.578125 C 2.28125 -0.410156 2.222656 -0.269531 2.109375 -0.15625 C 1.992188 -0.0507812 1.859375 0 1.703125 0 Z M 1.703125 0 "/></g></g></g><g fill="rgb(0%, 0%, 0%)" fill-opacity="1"><g transform="translate(228.044445, 261.691536)"><g><path d="M 7.640625 -0.8125 C 7.679688 -0.71875 7.703125 -0.632812 7.703125 -0.5625 C 7.703125 -0.40625 7.644531 -0.269531 7.53125 -0.15625 C 7.414062 -0.0507812 7.273438 0 7.109375 0 C 7.003906 0 6.898438 -0.03125 6.796875 -0.09375 C 6.691406 -0.15625 6.617188 -0.242188 6.578125 -0.359375 L 5.953125 -1.921875 L 1.9375 -1.921875 L 1.3125 -0.359375 C 1.257812 -0.242188 1.179688 -0.15625 1.078125 -0.09375 C 0.984375 -0.03125 0.878906 0 0.765625 0 C 0.609375 0 0.472656 -0.0546875 0.359375 -0.171875 C 0.253906 -0.285156 0.203125 -0.421875 0.203125 -0.578125 C 0.203125 -0.648438 0.21875 -0.738281 0.25 -0.84375 L 3.390625 -8.328125 C 3.503906 -8.585938 3.6875 -8.71875 3.9375 -8.71875 C 4.207031 -8.71875 4.390625 -8.585938 4.484375 -8.328125 Z M 2.328125 -2.875 L 5.5625 -2.875 L 3.96875 -6.859375 Z M 2.328125 -2.875 "/></g></g></g><g fill="rgb(0%, 7.449341%, 42.349243%)" fill-opacity="1"><g transform="translate(157.731776, 242.025702)"><g><path d="M 4.71875 0 C 4.257812 0 3.875 -0.15625 3.5625 -0.46875 C 3.25 -0.78125 3.09375 -1.160156 3.09375 -1.609375 L 3.09375 -22.59375 C 3.09375 -23.070312 3.25 -23.457031 3.5625 -23.75 C 3.875 -24.050781 4.257812 -24.203125 4.71875 -24.203125 C 5.1875 -24.203125 5.570312 -24.050781 5.875 -23.75 C 6.175781 -23.457031 6.328125 -23.070312 6.328125 -22.59375 L 6.328125 -1.609375 C 6.328125 -1.160156 6.175781 -0.78125 5.875 -0.46875 C 5.570312 -0.15625 5.1875 0 4.71875 0 Z M 4.71875 0 "/></g></g></g><g fill="rgb(85.879517%, 22.349548%, 31.759644%)" fill-opacity="1"><g transform="translate(176.403288, 242.025702)"><g><path d="M 20.359375 -2.609375 C 20.585938 -2.273438 20.703125 -1.921875 20.703125 -1.546875 C 20.703125 -1.140625 20.566406 -0.78125 20.296875 -0.46875 C 20.035156 -0.15625 19.675781 0 19.21875 0 C 18.695312 0 18.285156 -0.195312 17.984375 -0.59375 L 11.25 -9.921875 L 4.125 -0.46875 C 3.8125 -0.15625 3.4375 0 3 0 C 2.550781 0 2.195312 -0.144531 1.9375 -0.4375 C 1.675781 -0.726562 1.546875 -1.078125 1.546875 -1.484375 C 1.546875 -1.898438 1.671875 -2.273438 1.921875 -2.609375 L 9.140625 -12.21875 L 2.328125 -21.671875 C 2.117188 -21.941406 2.015625 -22.257812 2.015625 -22.625 C 2.015625 -23.0625 2.148438 -23.429688 2.421875 -23.734375 C 2.691406 -24.046875 3.050781 -24.203125 3.5 -24.203125 C 4.039062 -24.203125 4.425781 -24.050781 4.65625 -23.75 L 11.3125 -14.515625 L 18.265625 -23.75 C 18.546875 -24.050781 18.925781 -24.203125 19.40625 -24.203125 C 19.84375 -24.203125 20.1875 -24.054688 20.4375 -23.765625 C 20.695312 -23.484375 20.828125 -23.132812 20.828125 -22.71875 C 20.828125 -22.375 20.710938 -22.023438 20.484375 -21.671875 L 13.421875 -12.25 Z M 20.359375 -2.609375 "/></g></g></g><g fill="rgb(97.24884%, 49.01886%, 25.878906%)" fill-opacity="1"><g transform="translate(205.53131, 242.025702)"><g><path d="M 4.71875 0 C 4.257812 0 3.875 -0.15625 3.5625 -0.46875 C 3.25 -0.78125 3.09375 -1.160156 3.09375 -1.609375 L 3.09375 -22.59375 C 3.09375 -23.070312 3.25 -23.457031 3.5625 -23.75 C 3.875 -24.050781 4.257812 -24.203125 4.71875 -24.203125 L 10.328125 -24.203125 C 12.660156 -24.203125 14.734375 -23.6875 16.546875 -22.65625 C 18.367188 -21.625 19.785156 -20.191406 20.796875 -18.359375 C 21.804688 -16.535156 22.3125 -14.457031 22.3125 -12.125 C 22.3125 -9.789062 21.804688 -7.703125 20.796875 -5.859375 C 19.785156 -4.015625 18.367188 -2.578125 16.546875 -1.546875 C 14.734375 -0.515625 12.660156 0 10.328125 0 Z M 10.328125 -2.859375 C 12.035156 -2.859375 13.566406 -3.25 14.921875 -4.03125 C 16.273438 -4.8125 17.328125 -5.910156 18.078125 -7.328125 C 18.835938 -8.742188 19.21875 -10.34375 19.21875 -12.125 C 19.21875 -13.894531 18.835938 -15.484375 18.078125 -16.890625 C 17.328125 -18.296875 16.273438 -19.390625 14.921875 -20.171875 C 13.566406 -20.960938 12.035156 -21.359375 10.328125 -21.359375 L 6.328125 -21.359375 L 6.328125 -2.859375 Z M 10.328125 -2.859375 "/></g></g></g></svg>